<svg xmlns="http://www.w3.org/2000/svg" viewBox="0 0 324 383"><defs><style>.cls-1{isolation:isolate;}.cls-2{fill:#666565;}.cls-3{fill:#adadad;}.cls-4{fill:#1fb2b2;}.cls-5,.cls-9{fill:#fff;}.cls-5{opacity:0.14;mix-blend-mode:overlay;}.cls-6{fill:#0170ba;}.cls-7{fill:#29a9df;}.cls-8{fill:#cfcfcf;}</style></defs><title>monitorCssNew</title><g class="cls-1"><g id="Layer_2" data-name="Layer 2"><rect class="cls-2" width="324" height="324"/><rect class="cls-3" x="12" y="12" width="300" height="300"/><rect class="cls-4" x="23" y="23" width="278" height="278"/><rect class="cls-2" x="140" y="324" width="44" height="45"/><polygon class="cls-5" points="23 301 301 23 301 301 23 301"/><rect class="cls-2" x="101" y="355" width="122" height="28"/></g><g id="Layer_3" data-name="Layer 3"><g id="_000000ff" data-name="#000000ff"><path d="M366.692,222.046c6.821-.085,13.642-.026,20.462-.029.016,2.153.049,4.305-.029,6.458-4.726-.033-9.448,0-14.171.029-.032,3.126-.094,6.251-.065,9.377,4.742.029,9.487.075,14.229.056.055,1.769.036,3.545-.016,5.318-6.8-.046-13.6-.026-20.4-.02C366.715,236.171,366.728,229.11,366.692,222.046Z" transform="translate(-238 -138)"/><path d="M389.587,222.023c6.905-.013,13.81-.056,20.719.023-.026,2.035-.006,4.066-.006,6.1q-7.537-.025-15.077.066.01,1.2,0,2.4c5.018.082,10.033.092,15.048.121.019,4.171.01,8.338.036,12.506q-10.363-.02-20.725.026c-.036-1.684-.039-3.365.01-5.049,4.788.013,9.578.02,14.366-.02.029-1.084.042-2.172.039-3.257-4.81,0-9.624.016-14.434-.016C389.561,230.624,389.561,226.322,389.587,222.023Z" transform="translate(-238 -138)"/><path d="M412.619,222.059H433.3c.029,2.044.058,4.089-.006,6.13-5.047,0-10.095.026-15.142.036.013.835.032,1.671.075,2.506,5.018-.023,10.036.039,15.051.092.045,4.151.078,8.3.019,12.454q-10.363-.029-20.725.013c-.042-1.678-.055-3.362.016-5.039q7.167.054,14.34-.016c.013-1.088.036-2.176.026-3.26-4.8.046-9.6.02-14.4,0C412.554,230.673,412.586,226.365,412.619,222.059Z" transform="translate(-238 -138)"/></g><g id="_0170baff" data-name="#0170baff"><path class="cls-6" d="M344.486,252.026q55.5,0,111,0c-2.036,23.213-4.04,46.427-6.161,69.634q-1.89,22.249-3.93,44.487c-7.9,2.11-15.714,4.515-23.606,6.635-7.25,2.146-14.557,4.089-21.81,6.219h-.214c-6.9-2.071-13.872-3.892-20.774-5.963-8.146-2.215-16.22-4.685-24.37-6.89-1.062-11.11-2.02-22.227-2.965-33.344-1.783-20.54-3.722-41.067-5.437-61.61-.594-6.183-1.02-12.385-1.731-18.554v-.613m55.674,9.158c-.078,4.459.058,8.922-.078,13.378-12.693-.046-25.39-.01-38.083,0,.218,4.328.793,8.627,1.384,12.919,11.81.442,23.636-.016,35.445.341C388.5,292.5,378.038,296.9,367.66,301.48a13.949,13.949,0,0,0-2.637,1.284c.088,4.754.848,9.482,1.182,14.226,6.295-.023,12.586-.125,18.881-.134,5.044-.026,10.092.075,15.136-.036-.24,7.818.075,15.645-.162,23.462-3.394-.508-6.746-1.271-10.127-1.877-2.667-.586-5.4-.891-8.026-1.661-.374-3.752-.633-7.516-.965-11.271a8.337,8.337,0,0,0-2.352-.226c-3.813.023-7.63-.013-11.446.046a216.4,216.4,0,0,0,2.111,21.575c3.761.989,7.529,1.959,11.284,2.991,5.752,1.579,11.576,2.893,17.338,4.446a7.222,7.222,0,0,0,2.088.344c.383,4.748.088,9.525.159,14.285a28.675,28.675,0,0,0,3.917-.947c10.907-2.988,21.8-6.032,32.7-9.049.542-4.325.8-8.679,1.224-13.014q1.7-19.767,3.466-39.53c1.393-15.072,2.6-30.159,4-45.231C430.34,261.177,415.25,261.134,400.16,261.183Z" transform="translate(-238 -138)"/></g><g id="_29a9dfff" data-name="#29a9dfff"><path class="cls-7" d="M400.16,261.183c15.09-.049,30.18-.007,45.274-.02-1.4,15.072-2.608,30.159-4,45.231q-1.783,19.762-3.466,39.53c-.429,4.335-.682,8.689-1.224,13.014-10.9,3.018-21.794,6.061-32.7,9.049a28.675,28.675,0,0,1-3.917.947c-.071-4.761.224-9.538-.159-14.285l.393-.079c10.143-2.569,20.219-5.4,30.339-8.057,1.28-14.482,2.7-28.957,3.6-43.468-8.607.046-17.218.02-25.825.056-1.254.007-2.507,0-3.755-.092,4.632-2.4,9.5-4.312,14.259-6.458,4.563-2.087,9.182-4.043,13.762-6.091a12.709,12.709,0,0,0,2.6-1.36,21.8,21.8,0,0,0,.409-3.47c.263-3.67.731-7.32.906-10.992-12.19-.1-24.379-.013-36.572-.079C400.218,270.1,400.082,265.642,400.16,261.183Z" transform="translate(-238 -138)"/><path class="cls-7" d="M400.221,316.82c5.885-.1,11.774.059,17.663.02-.328,6.071-.828,12.133-1.14,18.2-3.609,1.189-7.272,2.2-10.91,3.3a42.149,42.149,0,0,0-5.775,1.943C400.3,332.465,399.981,324.638,400.221,316.82Z" transform="translate(-238 -138)"/></g><g id="_cfcfcfff" data-name="#cfcfcfff"><path class="cls-8" d="M362,274.564c12.693-.013,25.39-.049,38.083,0,.166,14.089-.042,28.177.14,42.259-5.044.111-10.092.01-15.136.036-6.295.01-12.586.111-18.881.134-.335-4.744-1.095-9.472-1.182-14.226a13.949,13.949,0,0,1,2.637-1.284c10.377-4.577,20.836-8.981,31.168-13.656-11.81-.357-23.636.1-35.445-.341C362.792,283.191,362.217,278.892,362,274.564Z" transform="translate(-238 -138)"/><path class="cls-8" d="M367.144,325.293c3.816-.059,7.633-.023,11.446-.046a8.337,8.337,0,0,1,2.352.226c.331,3.755.591,7.519.965,11.271,2.628.77,5.359,1.075,8.026,1.661,3.381.606,6.733,1.37,10.127,1.877.325,4.757-.244,9.547.3,14.288l-.393.079a7.222,7.222,0,0,1-2.088-.344c-5.762-1.553-11.586-2.867-17.338-4.446-3.755-1.032-7.522-2-11.284-2.991A216.4,216.4,0,0,1,367.144,325.293Z" transform="translate(-238 -138)"/></g><g id="_ffffffff" data-name="#ffffffff"><path class="cls-9" d="M400.082,274.561c12.193.066,24.383-.02,36.572.079-.175,3.673-.643,7.323-.906,10.992a21.8,21.8,0,0,1-.409,3.47,12.709,12.709,0,0,1-2.6,1.36c-4.58,2.048-9.2,4-13.762,6.091-4.755,2.146-9.627,4.053-14.259,6.458,1.247.092,2.5.1,3.755.092,8.607-.036,17.218-.01,25.825-.056-.9,14.511-2.319,28.986-3.6,43.468-10.121,2.66-20.2,5.488-30.339,8.057-.542-4.741.026-9.531-.3-14.288a42.149,42.149,0,0,1,5.775-1.943c3.638-1.1,7.3-2.107,10.91-3.3.312-6.071.812-12.133,1.14-18.2-5.889.039-11.777-.121-17.663-.02C400.039,302.738,400.247,288.649,400.082,274.561Z" transform="translate(-238 -138)"/></g></g></g></svg>