<svg id="Layer_1" data-name="Layer 1" xmlns="http://www.w3.org/2000/svg" viewBox="0 0 121.636 140.581"><defs><style>.cls-1{fill:#1fb2b2;}.cls-2{fill:#129295;}</style></defs><title>newLogoJustR</title><path class="cls-1" d="M150.791,6.6,136.77,12.9q-4.4,1.976-7.7.266T123,5.538l-6.461,2.9q2.471,5.5,1.729,9.3t-5.507,5.944L98.876,29.925q-7.056,3.17-8.81,9.686t2.066,15.262l6.415-2.882q-2.235-5.219-1.331-8.846t5.577-5.727L116.4,31.3q9.851-4.426,7.047-15.447l.55-.247q6.378,9.415,16.229,4.989l13.517-6.073q8.843-3.973,13.853,6.442l6.369-2.862q-3.747-8.339-9.911-11.517T150.791,6.6Z" transform="translate(-89.514 -5)"/><path class="cls-1" d="M182.4,132.562q.87-3.64,5.315-5.637l14.021-6.3q7.011-3.15,8.825-9.775t-1.974-15.056l-6.369,2.862q4.4,10.525-4.445,14.5l-13.517,6.073q-9.851,4.426-7.047,15.447l-.55.247q-3.243-4.766-7.124-6.051t-9.105,1.062l-13.609,6.115q-4.674,2.1-7.976.389t-5.679-6.755l-6.415,2.882q4,8.665,10.031,11.6t13.038-.214l13.884-6.238q4.765-2.141,8.1-.171t5.848,7.561l6.461-2.9Q181.532,136.2,182.4,132.562Z" transform="translate(-89.514 -5)"/><path class="cls-2" d="M138.523,78.541V102.95H131.7V44.255h16.1q10.8,0,15.958,4.135t5.159,12.446q0,11.643-11.8,15.738L173.05,102.95h-8.07L150.768,78.541Zm0-5.861h9.354q7.226,0,10.6-2.871t3.372-8.612q0-5.821-3.433-8.391T147.4,50.237h-8.872Z" transform="translate(-89.514 -5)"/></svg>