<svg id="Layer_1" data-name="Layer 1" xmlns="http://www.w3.org/2000/svg" viewBox="0 0 281.76 124.05"><defs><style>.cls-1{fill:#c7c8ca;}.cls-2{fill:#939598;}</style></defs><title>newLogoSmallGray</title><path class="cls-1" d="M58.71,12.26l-11,5q-3.46,1.55-6.06.21t-4.77-6l-5.08,2.28Q33.71,18,33.13,21T28.8,25.7L17.88,30.61q-5.55,2.49-6.93,7.62t1.63,12l5-2.27q-1.76-4.11-1-7T21,36.5l10.7-4.81q7.75-3.48,5.54-12.15l.43-.19q5,7.41,12.77,3.92L61,18.49q7-3.13,10.9,5.07l5-2.25q-2.95-6.56-7.8-9.06A11.48,11.48,0,0,0,58.71,12.26Z" transform="translate(-10.51 -11)"/><path class="cls-1" d="M97.88,124.81q.68-2.86,4.18-4.43l11-5a11.62,11.62,0,0,0,6.94-7.69q1.43-5.21-1.55-11.84l-5,2.25q3.46,8.28-3.5,11.4l-10.63,4.78q-7.75,3.48-5.54,12.15l-.43.19a11.41,11.41,0,0,0-5.6-4.76q-3.05-1-7.16.84l-10.7,4.81q-3.68,1.65-6.27.31t-4.47-5.31l-5,2.27q3.15,6.82,7.89,9.13t10.26-.17l10.92-4.91q3.75-1.68,6.37-.13t4.6,5.95l5.08-2.28Q97.2,127.67,97.88,124.81Z" transform="translate(-10.51 -11)"/><path class="cls-2" d="M42.06,68.85V88H36.7V41.88H49.36q8.49,0,12.55,3.25T66,54.92q0,9.16-9.28,12.38L69.22,88H62.88L51.7,68.85Zm0-4.61h7.36q5.68,0,8.34-2.26t2.65-6.77q0-4.58-2.7-6.6t-8.67-2h-7Z" transform="translate(-10.51 -11)"/><path class="cls-2" d="M105.76,70.71q0,8.46-4.26,13.22T89.72,88.68a15.6,15.6,0,0,1-8.24-2.18,14.38,14.38,0,0,1-5.56-6.25,21.79,21.79,0,0,1-2-9.54q0-8.46,4.23-13.18T89.94,52.8q7.26,0,11.54,4.83T105.76,70.71Zm-26.37,0q0,6.63,2.65,10.11t7.8,3.47q5.15,0,7.82-3.46t2.67-10.12q0-6.6-2.67-10t-7.88-3.43q-5.15,0-7.77,3.38T79.39,70.71Z" transform="translate(-10.51 -11)"/><path class="cls-2" d="M119.88,53.44V75.89q0,4.23,1.93,6.32t6,2.08q5.43,0,7.94-3t2.51-9.69V53.44h5.24V88H139.2l-.76-4.64h-.28a10.45,10.45,0,0,1-4.47,3.92,15,15,0,0,1-6.52,1.36q-6.32,0-9.46-3t-3.14-9.6V53.44Z" transform="translate(-10.51 -11)"/><path class="cls-2" d="M178.2,83.41h-.28q-3.63,5.27-10.86,5.27-6.79,0-10.56-4.64t-3.77-13.2q0-8.56,3.79-13.3t10.55-4.74q7,0,10.8,5.12h.41L178,55.43,177.92,53V38.91h5.24V88H178.9Zm-10.48.88q5.37,0,7.78-2.92t2.42-9.43V70.84q0-7.36-2.45-10.5t-7.82-3.14a8,8,0,0,0-7.06,3.58q-2.45,3.58-2.45,10.12t2.43,10A8.24,8.24,0,0,0,167.72,84.29Z" transform="translate(-10.51 -11)"/><path class="cls-2" d="M218,88V65.66q0-4.23-1.93-6.32t-6-2.08q-5.43,0-8,2.94t-2.53,9.69V88h-5.24V53.44h4.26l.85,4.74h.25a10.7,10.7,0,0,1,4.52-4,14.67,14.67,0,0,1,6.47-1.41q6.25,0,9.41,3t3.16,9.65V88Z" transform="translate(-10.51 -11)"/><path class="cls-2" d="M255.26,88l-1-4.93H254a14.56,14.56,0,0,1-5.16,4.41,15.74,15.74,0,0,1-6.43,1.15q-5.15,0-8.07-2.65t-2.92-7.55q0-10.48,16.77-11L254,67.3V65.15q0-4.07-1.75-6t-5.61-1.94a22.84,22.84,0,0,0-9.79,2.65l-1.61-4a24.63,24.63,0,0,1,5.61-2.18,24.28,24.28,0,0,1,6.11-.79q6.19,0,9.17,2.75t3,8.81V88Zm-11.84-3.69a10.64,10.64,0,0,0,7.69-2.68,9.93,9.93,0,0,0,2.79-7.52V71l-5.24.22q-6.25.22-9,1.94a5.86,5.86,0,0,0-2.76,5.35,5.4,5.4,0,0,0,1.72,4.33A7.14,7.14,0,0,0,243.42,84.35Z" transform="translate(-10.51 -11)"/><path class="cls-2" d="M292.27,78.61a8.67,8.67,0,0,1-3.6,7.45q-3.6,2.62-10.11,2.62-6.88,0-10.74-2.18V81.64a26,26,0,0,0,5.35,2,22.35,22.35,0,0,0,5.51.73A12.5,12.5,0,0,0,285,83a4.51,4.51,0,0,0,.46-7.45,27.57,27.57,0,0,0-6.84-3.39,37.07,37.07,0,0,1-6.87-3.14,9.38,9.38,0,0,1-3-3,8,8,0,0,1-1-4.07,7.77,7.77,0,0,1,3.44-6.68q3.44-2.45,9.44-2.45a27.63,27.63,0,0,1,10.93,2.27l-1.86,4.26a25.08,25.08,0,0,0-9.44-2.15,10.86,10.86,0,0,0-5.62,1.17,3.61,3.61,0,0,0-1.89,3.22,3.92,3.92,0,0,0,.71,2.37,7,7,0,0,0,2.29,1.86,51.16,51.16,0,0,0,6.06,2.56q6.16,2.24,8.32,4.52A8,8,0,0,1,292.27,78.61Z" transform="translate(-10.51 -11)"/></svg>