<svg id="svg2" xmlns="http://www.w3.org/2000/svg" viewBox="0 0 292.237 337.754"><defs><style>.cls-1{fill:#1fb2b2;}.cls-2{fill:#129295;}</style></defs><title>R</title><path class="cls-1" d="M155.617,43.2,121.931,58.338q-10.568,4.748-18.5.639T88.847,40.655L73.324,47.629q5.936,13.21,4.153,22.347T64.246,84.257L30.89,99.244q-16.953,7.617-21.166,23.271t4.965,36.669L30.1,152.258Q24.731,139.719,26.9,131t13.4-13.761L73,102.553Q96.664,91.919,89.927,65.44l1.321-.594q15.324,22.62,38.992,11.986l32.475-14.591Q183.963,52.695,196,77.718l15.3-6.875q-9-20.036-23.812-27.671T155.617,43.2Z" transform="translate(-8.397 -39.361)"/><path class="cls-1" d="M231.565,345.836q2.091-8.746,12.769-13.544l33.686-15.136q16.843-7.568,21.2-23.485T294.481,257.5l-15.3,6.875q10.568,25.286-10.679,34.833L236.024,313.8q-23.669,10.634-16.932,37.113l-1.321.594q-7.791-11.45-17.117-14.537t-21.875,2.552l-32.7,14.69q-11.229,5.045-19.162.935t-13.643-16.23l-15.412,6.925q9.618,20.817,24.1,27.872t31.325-.513l33.356-14.987q11.449-5.144,19.464-.41t14.049,18.165l15.522-6.974Q229.474,354.582,231.565,345.836Z" transform="translate(-8.397 -39.361)"/><path class="cls-2" d="M126.144,216.046v58.645h-16.4V133.674h38.678q25.946,0,38.341,9.935t12.394,29.9q0,27.972-28.358,37.81L209.1,274.691H189.708l-34.145-58.645Zm0-14.082h22.474q17.362,0,25.464-6.9t8.1-20.69q0-13.986-8.247-20.159t-26.477-6.173H126.144Z" transform="translate(-8.397 -39.361)"/></svg>